<!-- Generated by IcoMoon.io -->
<svg version="1.1" xmlns="http://www.w3.org/2000/svg" width="26" height="32" viewBox="0 0 26 32">
<title>all</title>
<path d="M25.6 6.481c-0.009-0.513-0.318-0.952-0.76-1.149l-0.008-0.003-11.533-5.227c-0.149-0.064-0.323-0.102-0.506-0.102s-0.356 0.037-0.514 0.105l0.009-0.003-11.52 5.218c-0.459 0.201-0.774 0.652-0.774 1.176 0 0.509 0.297 0.949 0.728 1.155l0.008 0.003 4.356 2.116-4.309 1.954c-0.459 0.201-0.774 0.652-0.774 1.176 0 0.509 0.297 0.949 0.728 1.155l0.008 0.003 3.738 1.813-3.699 1.677c-0.459 0.201-0.774 0.652-0.774 1.176 0 0.509 0.297 0.949 0.728 1.155l0.008 0.003 11.52 5.594c0.159 0.077 0.345 0.123 0.541 0.124h0c0.199-0 0.386-0.046 0.554-0.127l-0.008 0.003 11.52-5.594c0.438-0.21 0.735-0.649 0.735-1.158 0-0.52-0.311-0.968-0.756-1.168l-0.008-0.003-3.708-1.681 3.733-1.792c0.438-0.21 0.735-0.649 0.735-1.158 0-0.52-0.311-0.968-0.756-1.168l-0.008-0.003-4.318-1.98 4.348-2.091c0.44-0.209 0.739-0.649 0.739-1.16 0-0.014-0-0.027-0.001-0.041l0 0.002zM24.491 18.347c0.15 0.067 0.253 0.213 0.256 0.384v0c0 0.003 0 0.006 0 0.010 0 0.171-0.1 0.318-0.245 0.386l-0.003 0.001-11.52 5.589c-0.051 0.024-0.112 0.038-0.175 0.038s-0.124-0.014-0.178-0.039l0.003 0.001-11.52-5.598c-0.151-0.068-0.255-0.217-0.255-0.39s0.103-0.323 0.252-0.389l0.003-0.001 4.352-1.971 6.788 3.298c0.076 0.036 0.164 0.067 0.256 0.088l0.009 0.002h0.030c0.073 0.015 0.157 0.025 0.243 0.026h0.073c0.173-0.008 0.335-0.050 0.481-0.119l-0.008 0.003 6.784-3.294zM19.516 10.24l4.975 2.27c0.15 0.067 0.253 0.213 0.256 0.384v0c0 0.003 0 0.006 0 0.010 0 0.171-0.1 0.318-0.245 0.386l-0.003 0.001-11.524 5.594c-0.051 0.024-0.112 0.038-0.175 0.038s-0.124-0.014-0.178-0.039l0.003 0.001-11.524-5.598c-0.151-0.068-0.255-0.217-0.255-0.39s0.103-0.323 0.252-0.389l0.003-0.001 4.983-2.266 6.178 2.987c0.076 0.036 0.164 0.067 0.256 0.088l0.009 0.002c0.020 0.001 0.044 0.002 0.068 0.002s0.048-0.001 0.072-0.002l-0.003 0c0.020 0.001 0.044 0.002 0.068 0.002s0.048-0.001 0.072-0.002l-0.003 0c0.074-0.002 0.144-0.009 0.213-0.023l-0.008 0.001h0.073c0.102-0.024 0.192-0.056 0.276-0.097l-0.008 0.003zM24.495 6.874v0l-11.52 5.594c-0.051 0.024-0.112 0.037-0.175 0.037s-0.124-0.014-0.178-0.039l0.003 0.001-11.524-5.581c-0.151-0.068-0.255-0.217-0.255-0.39s0.103-0.323 0.252-0.389l0.003-0.001 11.52-5.218c0.052-0.022 0.112-0.034 0.176-0.034 0.001 0 0.002 0 0.004 0h-0c0 0 0.001 0 0.001 0 0.056 0 0.11 0.011 0.16 0.031l-0.003-0.001 11.52 5.227c0.15 0.067 0.253 0.213 0.256 0.384v0c0 0.003 0 0.007 0 0.011 0 0.166-0.094 0.309-0.232 0.38l-0.002 0.001z"></path>
</svg>
