<!-- Generated by IcoMoon.io -->
<svg version="1.1" xmlns="http://www.w3.org/2000/svg" width="26" height="32" viewBox="0 0 26 32">
<title>bin</title>
<path d="M10.946 13.52c0 0.398-0.215 0.72-0.48 0.72s-0.48-0.322-0.48-0.72c0-0.398 0.215-0.72 0.48-0.72s0.48 0.322 0.48 0.72z"></path>
<path d="M15.746 13.52c0 0.398-0.215 0.72-0.48 0.72s-0.48-0.322-0.48-0.72c0-0.398 0.215-0.72 0.48-0.72s0.48 0.322 0.48 0.72z"></path>
<path d="M13.826 15.68c0 0.53-0.43 0.96-0.96 0.96s-0.96-0.43-0.96-0.96c0-0.53 0.43-0.96 0.96-0.96s0.96 0.43 0.96 0.96z"></path>
<path d="M20.066 4.88h-4.584c-0.112-0.548-0.596-0.96-1.176-0.96h-2.88c-0.58 0-1.064 0.412-1.176 0.96h-4.584c-0.397 0-0.72 0.323-0.72 0.72 0 0.317 0.208 0.584 0.494 0.68l0.947 13.258c0.045 0.63 0.605 1.183 1.199 1.183 0 0 0 0 0 0 0.001 0 0.002-0 0.003-0h10.555c0.001 0 0.002 0 0.002 0s0 0 0 0c0.594-0 1.154-0.554 1.199-1.183v-0l0.947-13.257c0.286-0.095 0.494-0.362 0.494-0.68-0-0.397-0.323-0.72-0.72-0.72zM11.426 4.4h2.88c0.313 0 0.577 0.201 0.676 0.48h-4.232c0.099-0.279 0.363-0.48 0.676-0.48zM18.866 19.503v0c0 0 0 0 0 0-0.027 0.377-0.376 0.735-0.719 0.736-0 0-0.001 0-0.002 0h-10.56c-0 0-0.001 0-0.001 0-0.343-0.001-0.692-0.359-0.719-0.736 0 0 0 0 0-0v0l-0.942-13.183h13.884l-0.941 13.183zM20.066 5.84h-14.4c-0.132 0-0.24-0.108-0.24-0.24s0.108-0.24 0.24-0.24h14.4c0.132 0 0.24 0.108 0.24 0.24s-0.108 0.24-0.24 0.24z"></path>
</svg>
