<!-- Generated by IcoMoon.io -->
<svg version="1.1" xmlns="http://www.w3.org/2000/svg" width="26" height="32" viewBox="0 0 26 32">
<title>completed</title>
<path d="M1.683 2.668c-0.11 0.001-0.145 0.080-0.147 0.148v20.076c0.001 0.111 0.096 0.147 0.147 0.148h20.604c0.114 0 0.147-0.082 0.147-0.148v-12.592c0.001-0.164-0.291-0.172-0.294 0v12.444h-20.31v-19.781h15.59c0.213-0.001 0.176-0.294 0-0.296z"></path>
<path d="M23.808 2.61l-11.298 14.521-5.51-5.678c-0.121-0.109-0.328 0.072-0.21 0.206l5.628 5.799c0.076 0.071 0.188 0.025 0.221-0.012l11.402-14.654c0.097-0.152-0.119-0.317-0.232-0.182z"></path>
</svg>
