<!-- Generated by IcoMoon.io -->
<svg version="1.1" xmlns="http://www.w3.org/2000/svg" width="24" height="32" viewBox="0 0 24 32">
<title>edit</title>
<path d="M10.287 15.601c-0.071 0-0.142-0.024-0.2-0.075-0.128-0.111-0.142-0.304-0.031-0.432l12.608-14.584c0.111-0.128 0.304-0.142 0.432-0.031s0.142 0.304 0.031 0.432l-12.608 14.584c-0.061 0.070-0.146 0.106-0.232 0.106zM20.221 25.195h-16.811c-1.854 0-3.363-1.515-3.363-3.377v-16.886c0-1.862 1.509-3.377 3.363-3.377h11.653c0.169 0 0.306 0.137 0.306 0.306s-0.137 0.306-0.306 0.306h-11.653c-1.516 0-2.75 1.24-2.75 2.764v16.886c0 1.524 1.234 2.764 2.75 2.764h16.811c1.516 0 2.75-1.24 2.75-2.764v-13.24c0-0.169 0.137-0.306 0.306-0.306s0.306 0.137 0.306 0.306v13.24c0 1.862-1.508 3.377-3.363 3.377z"></path>
</svg>
