<!-- Generated by IcoMoon.io -->
<svg version="1.1" xmlns="http://www.w3.org/2000/svg" width="26" height="32" viewBox="0 0 26 32">
<title>small-cross</title>
<path d="M3.749 3.749c-4.999 4.999-4.999 13.103 0 18.102s13.103 4.999 18.102 0c4.999-4.999 4.999-13.103 0-18.102s-13.103-4.999-18.102 0zM9.734 6.523l3.066 3.066 3.066-3.066c2.124-2.124 5.336 1.087 3.212 3.212l-3.066 3.066 3.066 3.066c2.125 2.125-1.087 5.336-3.212 3.212l-3.066-3.066-3.066 3.066c-2.124 2.125-5.336-1.087-3.212-3.212l3.066-3.066-3.066-3.066c-2.124-2.124 1.087-5.336 3.212-3.212z"></path>
</svg>
